<?xml version="1.0" encoding="UTF-8"?>
<svg width="750px" height="313px" viewBox="0 0 750 313" xmlns="http://www.w3.org/2000/svg" xmlns:xlink="http://www.w3.org/1999/xlink" version="1.1">
 <!-- Generated by Pixelmator Pro 2.0.8 -->
 <g id="JS">
  <path id="S" d="M643 138 L683 140 C683 140 684.588 119.665 682 110 680.534 104.526 677.719 99.275 674 95 671.024 91.579 667.051 89.036 663 87 658.008 84.49 647 82 647 82 L629 82 C629 82 615.842 84.84 610 88 605.833 90.254 601.958 93.299 599 97 596.673 99.911 595.374 103.536 594 107 592.717 110.235 591.505 113.557 591 117 590.08 123.266 589.802 129.781 591 136 592.018 141.288 594.439 146.263 597 151 598.935 154.579 601.283 157.972 604 161 606.367 163.637 609.038 166.055 612 168 612.13 168.085 612.152 168.072 612.421 168.2 613.945 168.926 620.232 172.46 623 174 627.446 176.473 630.889 178.002 635 181 637.483 182.811 640.617 184.256 642 187 644.105 191.178 643.055 196.286 643 201 642.976 203.027 643.271 205.421 642 207 640.874 208.398 639.795 209 638 209 636.205 209 634.321 208.215 633 207 631.903 205.991 631.342 204.451 631 203 629.468 196.512 631 183 631 183 L590 183 C590 183 589.889 197.081 591 204 591.988 210.148 592.862 216.621 596 222 598.851 226.886 603.188 231.026 608 234 612.483 236.771 617.815 238.052 623 239 631.204 240.5 639.743 241.171 648 240 654.262 239.112 660.475 237.078 666 234 670.549 231.466 674.861 228.154 678 224 678.296 223.608 678.599 222.653 678.599 222.653 678.599 222.653 681.136 217.655 682 215 683.477 210.462 684.667 205.761 685 201 685.327 196.333 684.737 191.62 684 187 683.351 182.928 682.514 178.835 681 175 679.74 171.808 678.067 168.74 676 166 673.729 162.989 671.026 160.251 668 158 664.051 155.062 659.368 153.267 655 151 652.354 149.626 649.614 148.435 647 147 643.592 145.129 639.432 144.032 637 141 636.34 140.178 636.463 138.947 636 138 635.472 136.92 634.486 136.099 634 135 632.888 132.486 632.2 129.741 632 127 631.757 123.659 631.4 119.943 633 117 634.019 115.125 635.869 112.882 638 113 640.353 113.13 641.991 115.87 643 118 644.435 121.027 644 124.65 644 128 644 131.35 643 138 643 138 Z" fill="#f0db4f" fill-opacity="1" stroke="none"/>
  <path id="J" d="M542 84 L581 81 C581 81 584.971 109.607 586 124 586.88 136.306 587 161 587 161 587 161 586.221 179.058 585 188 583.851 196.42 583.252 205.149 580 213 577.24 219.662 573.406 226.228 568 231 564.089 234.453 559.051 236.691 554 238 546.571 239.925 538.6 240.064 531 239 525.78 238.269 520.4 236.901 516 234 512.649 231.79 510.309 228.283 508 225 505.597 221.584 503.583 217.865 502 214 500.16 209.509 498.673 204.806 498 200 497.029 193.068 497.423 185.976 498 179 498.334 174.959 499.269 170.989 500 167 500.306 165.328 501 162 501 162 L536 165 C536 165 534.911 178.326 535 185 535.058 189.346 534.184 194.051 536 198 536.788 199.713 538.139 201.698 540 202 541.471 202.239 543.067 201.163 544 200 545.72 197.856 545.56 194.713 546 192 546.696 187.71 546.746 183.339 547 179 547.487 170.674 548 154 548 154 548 154 547.682 133.982 547 124 546.338 114.304 545.37 104.621 544 95 543.475 91.31 542 84 542 84 Z" fill="#f0db4f" fill-opacity="1" stroke="none"/>
 </g>
 <path id="." d="M495 216 C495 203.85 486.046 194 475 194 463.954 194 455 203.85 455 216 455 228.15 463.954 238 475 238 486.046 238 495 228.15 495 216 Z" fill="#323330" fill-opacity="1" stroke="none"/>
 <g id="FNBR">
  <path id="R" d="M407 237 L394 184 394 182 390 182 391 229 351 229 351 79 C351 79 368.257 75.669 377 75 384.644 74.415 392.412 73.907 400 75 405.846 75.842 411.543 77.74 417 80 420.859 81.598 424.731 83.401 428 86 431.142 88.498 433.795 91.646 436 95 439.031 99.61 441.492 104.692 443 110 444.56 115.488 444.666 121.304 445 127 445.234 130.993 445.595 135.044 445 139 444.326 143.483 442.901 147.884 441 152 439.178 155.946 436.831 159.702 434 163 431.692 165.689 426 170 426 170 L434 195 443 220 448 234 407 237 Z M390 155 L395 154 C395 154 399.606 150.461 401 148 402.354 145.608 402.664 142.728 403 140 403.489 136.03 403.394 131.981 403 128 402.665 124.617 401.969 121.258 401 118 400.488 116.279 399.988 114.499 399 113 397.962 111.426 395 109 395 109 L389 109 390 155 Z" fill="#2196f3" fill-opacity="1" stroke="none"/>
  <path id="B" d="M282.092 233.063 C281.061 233.058 280.03 233.04 279 233 270.314 232.666 253 231 253 231 L251 80 C251 80 255.665 79.319 258 79 265.66 77.953 273.277 76.368 281 76 290.661 75.54 300.514 75.11 310 77 315.586 78.113 321.063 80.159 326 83 330.106 85.363 334.312 88.099 337 92 339.991 96.34 340.593 101.921 342 107 342.82 109.962 343.792 112.934 344 116 344.272 120.005 344.084 124.135 343 128 341.793 132.306 339.763 136.484 337 140 333.492 144.463 324 151 324 151 324 151 324.642 151.694 325 152 328.447 154.945 332.743 156.846 336 160 338.73 162.644 341.489 165.513 343 169 345.549 174.883 345.987 181.588 346 188 346.009 192.384 345.127 196.763 344 201 342.807 205.487 341.69 210.216 339 214 335.712 218.627 330.919 222.167 326 225 321.706 227.474 316.718 228.485 312 230 309.689 230.742 307.387 231.564 305 232 301.052 232.721 297.01 232.833 293 233 292.001 233.042 291 233 290 233 287.708 233 285.415 233.056 283.123 233.063 282.779 233.064 282.435 233.064 282.092 233.063 Z M292 204 C292 204 296.837 203.936 299 203 300.959 202.153 302.728 200.714 304 199 305.07 197.558 305.661 195.763 306 194 306.693 190.4 306.302 186.654 306 183 305.833 180.979 305.701 178.903 305 177 304.328 175.176 303.389 173.36 302 172 300.08 170.12 295 168 295 168 L291 168 292 204 Z M291 140 L296 140 C296 140 300.439 139.417 302 138 304.431 135.793 305.318 132.211 306 129 306.9 124.761 306.996 120.217 306 116 305.486 113.824 304.406 111.739 303 110 301.658 108.34 298 106 298 106 L291 106 291 140 Z" fill="#2196f3" fill-opacity="1" stroke="none"/>
  <path id="N" d="M146 86 L183 84 209 158 203 76 239 76 242 232 207 236 180 163 183 229 146 229 145 86 146 86 Z" fill="#2196f3" fill-opacity="1" stroke="none"/>
  <path id="F" d="M67 80 L140 79 140 118 107 118 107 149 137 149 137 187 108 187 109 231 69 231 67 80 Z" fill="#2196f3" fill-opacity="1" stroke="none"/>
 </g>
</svg>
