<?xml version="1.0" encoding="UTF-8"?>
<svg width="750px" height="313px" viewBox="0 0 750 313" xmlns="http://www.w3.org/2000/svg" xmlns:xlink="http://www.w3.org/1999/xlink" version="1.1">
 <!-- Generated by Pixelmator Pro 2.0.8 -->
 <g id="JS">
  <path id="S" d="M643 138 L683 140 682 110 674 95 663 87 647 82 629 82 610 88 599 97 594 107 591 117 591 136 597 151 604 161 612 168 622 173 635 181 642 187 644 201 643 207 638 209 633 207 631 203 631 183 590 183 591 204 596 222 608 234 623 239 648 240 666 234 678 224 682 215 685 201 684 187 681 175 676 166 668 158 655 151 647 147 637 141 636 138 634 135 632 127 633 117 638 113 643 118 644 128 643 138 Z" fill="#efdb50" fill-opacity="1" stroke="none"/>
  <path id="J" d="M542 84 L581 81 586 124 587 161 585 188 580 213 568 231 554 238 531 239 516 234 508 225 502 214 498 200 498 179 500 167 501 162 536 165 535 185 536 198 540 202 544 200 546 192 547 179 548 154 547 124 544 95 542 84 Z" fill="#efdb50" fill-opacity="1" stroke="none"/>
 </g>
 <path id="." d="M495 216 C495 203.85 486.046 194 475 194 463.954 194 455 203.85 455 216 455 228.15 463.954 238 475 238 486.046 238 495 228.15 495 216 Z" fill="#323330" fill-opacity="1" stroke="none"/>
 <g id="FNBR">
  <path id="R" d="M407 237 L394 184 394 182 390 182 391 229 351 229 351 79 377 75 400 75 417 80 428 86 436 95 443 110 445 127 445 139 441 152 434 163 426 170 434 195 443 220 448 234 407 237 Z M390 155 L395 154 401 148 403 140 403 128 401 118 399 113 395 109 389 109 390 155 Z" fill="#2196f3" fill-opacity="1" stroke="none"/>
  <path id="B" d="M279 233 L253 231 251 80 258 79 281 76 310 77 326 83 337 92 342 107 344 116 343 128 337 140 324 151 325 152 336 160 343 169 346 188 344 201 339 214 326 225 312 230 305 232 293 233 290 233 279 233 Z M292 204 L299 203 304 199 306 194 306 183 305 177 302 172 295 168 291 168 292 204 Z M291 140 L296 140 302 138 306 129 306 116 303 110 298 106 291 106 291 140 Z" fill="#2196f3" fill-opacity="1" stroke="none"/>
  <path id="N" d="M146 86 L183 84 209 158 203 76 239 76 242 232 207 236 180 163 183 229 146 229 145 86 146 86 Z" fill="#2196f3" fill-opacity="1" stroke="none"/>
  <path id="F" d="M67 80 L140 79 140 118 107 118 107 149 137 149 137 187 108 187 109 231 69 231 67 80 Z" fill="#2196f3" fill-opacity="1" stroke="none"/>
 </g>
</svg>
